<svg id="Layer_1" data-name="Layer 1" xmlns="http://www.w3.org/2000/svg" viewBox="0 0 32 32"><g><path d="M12.64,12.64A0.85,0.85,0,0,1,12,12.4L8.48,8.83A0.84,0.84,0,1,1,9.67,7.64l3.57,3.57a0.84,0.84,0,0,1,0,1.19,0.83,0.83,0,0,1-.6.25h0Zm10.29,12a0.85,0.85,0,0,1-.6-0.25L18.76,20.8A0.84,0.84,0,0,1,20,19.6l3.57,3.57a0.84,0.84,0,0,1,0,1.19,0.83,0.83,0,0,1-.59.25h0Zm-13.86,0a0.85,0.85,0,0,1-.6-0.25,0.84,0.84,0,0,1,0-1.19L12,19.61a0.84,0.84,0,0,1,1.19,1.19L9.67,24.37a0.84,0.84,0,0,1-.6.25h0Zm10.29-12a0.85,0.85,0,0,1-.6-0.25,0.84,0.84,0,0,1,0-1.19l3.57-3.57a0.84,0.84,0,1,1,1.19,1.19L20,12.4a0.84,0.84,0,0,1-.6.25h0ZM16,11.79a0.84,0.84,0,0,1-.84-0.84V0.84a0.84,0.84,0,1,1,1.68,0V10.95A0.84,0.84,0,0,1,16,11.79Zm-5.05,5.05H0.84a0.84,0.84,0,1,1,0-1.68H10.95A0.84,0.84,0,0,1,10.95,16.84ZM16,32a0.84,0.84,0,0,1-.84-0.84V21.05a0.84,0.84,0,1,1,1.68,0V31.16A0.84,0.84,0,0,1,16,32ZM31.16,16.84H21.05a0.84,0.84,0,1,1,0-1.68H31.16A0.84,0.84,0,1,1,31.16,16.84ZM16,18.53A2.53,2.53,0,1,1,18.53,16,2.53,2.53,0,0,1,16,18.53Zm0-3.37a0.84,0.84,0,1,0,.84.84A0.84,0.84,0,0,0,16,15.16Z"/></g></svg>
